<svg id="Layer_1" data-name="Layer 1" xmlns="http://www.w3.org/2000/svg" viewBox="0 0 40 40"><defs><style>.cls-1,.cls-2{fill:none;}.cls-1,.cls-2,.cls-3{stroke:#231d10;stroke-miterlimit:10;}.cls-1{stroke-width:2.8px;}.cls-2,.cls-3{stroke-width:0.1px;}.cls-3{fill:#231d10;}</style></defs><rect class="cls-1" x="2.29" y="2.29" width="35.42" height="35.42" rx="17.71"/><path class="cls-2" d="M29.37,9.83a5.62,5.62,0,0,1,3.76,5,.92.92,0,0,1-.91.87.86.86,0,0,1-.87-.87,3.52,3.52,0,0,0-2.14-3.16s-1.1-.22-.88-1.21A1,1,0,0,1,29.37,9.83Z"/><path class="cls-2" d="M8.89,24a4.11,4.11,0,0,0,1.87,3.66.94.94,0,0,1,.46,1.39A.87.87,0,0,1,10,29.3a5.84,5.84,0,0,1-2.91-4.89S7,23.24,8,23.15C8,23.15,9,23.22,8.89,24Z"/><path class="cls-2" d="M11.55,13.33l7.7-3.4a1.38,1.38,0,0,1,1.5,0l7.55,3.4s.84,0,.78,1.51v9.91A1.18,1.18,0,0,1,28.3,26l-7.42,4.26a1.83,1.83,0,0,1-1.76,0L11.65,26a1.1,1.1,0,0,1-.76-1.29V14.54S10.75,13.57,11.55,13.33Z"/><polygon class="cls-2" points="14.3 14.43 20 11.88 25.71 14.43 20 17.69 14.3 14.43"/><polygon class="cls-2" points="21.05 19.49 26.95 16.14 27.03 24.4 21.05 27.78 21.05 19.49"/><polygon class="cls-2" points="13.02 16.14 18.94 19.51 18.94 27.78 13.02 24.37 13.02 16.14"/><path class="cls-3" d="M20.34,3s10.2.25,13.74,7.71,2.25,8.14,2.25,8.14l-7.24.4V14.84h2.27a.84.84,0,0,0,.87.87.88.88,0,0,0,.91-.87,5.49,5.49,0,0,0-3.76-5,.89.89,0,0,0-1,.64s-.42.88.88,1.21c0,0,1.92,1.05,2.06,2.47l-2.18.24s-.07-.9-.79-1.06l-7.55-3.4Z"/><path class="cls-3" d="M31.17,13.84a2.53,2.53,0,0,1,.09,1.36c-.18.62-1.64-.09-1.64-.09l-.54-.27v-.62Z"/><polygon class="cls-3" points="14.3 14.43 20 11.88 25.71 14.43 20 17.69 14.3 14.43"/><polygon class="cls-3" points="21.05 19.49 26.95 16.14 27.03 24.4 21.05 27.78 21.05 19.49"/><polygon class="cls-3" points="13.02 16.14 18.94 19.51 18.94 27.78 13.02 24.37 13.02 16.14"/><path class="cls-3" d="M20.34,3l.41,6.9a1.11,1.11,0,0,0-1.5,0l-7.7,3.4s-.66-.09-.66,1.21V24.73L9,25.3S8.9,24.24,8.89,24,9,23.18,8,23.15c0,0-1-.19-.94,1.26A5.83,5.83,0,0,0,10,29.3L8.38,31.79s-7.1-5.68-5.74-12.51A39.15,39.15,0,0,1,6.17,8.58l4.71-3.47L16,2.29Z"/><path class="cls-3" d="M36.33,18.88l-7.24.4v5.47s.28.82-.78,1.28l-7.42,4.26a1.61,1.61,0,0,1-1.76,0L11.65,26a1.2,1.2,0,0,1-.76-1.29L9,25.3a4.41,4.41,0,0,0,1.73,2.37.87.87,0,0,1,.46,1.39A.78.78,0,0,1,10,29.3L8.38,31.79s5.9,7.48,13,5.62,13.81-6.14,14.34-9.87A75.21,75.21,0,0,1,37.25,20Z"/></svg>