<svg id="Layer_1" data-name="Layer 1" xmlns="http://www.w3.org/2000/svg" viewBox="0 0 40 40"><defs><style>.cls-1,.cls-2{fill:none;}.cls-1,.cls-2,.cls-3{stroke:#f5dc9f;stroke-miterlimit:10;}.cls-1{stroke-width:2.8px;}.cls-2,.cls-3{stroke-width:0.1px;}.cls-3{fill:#f5dc9f;}</style></defs><rect class="cls-1" x="2.29" y="2.55" width="35.42" height="35.42" rx="17.71"/><path class="cls-2" d="M15.92,11.35l11.14,7.34A1.41,1.41,0,0,1,27.85,20a1.55,1.55,0,0,1-.62,1.19L16.38,28.33a1.48,1.48,0,0,1-2.29-.22,1.31,1.31,0,0,1,.28-1.77L24,20l-9.59-6.28a1.4,1.4,0,0,1,1.51-2.36Z"/><path class="cls-3" d="M20.42,3.51V14.32l6.64,4.37A1.29,1.29,0,0,1,27.85,20s.1.93-.62,1.19L16.38,28.33a1.37,1.37,0,0,1-2.29-.22,1.2,1.2,0,0,1,.28-1.77L24,20l-9.59-6.28-10.33.16S-3.39,34.24,20.85,37.49c0,0,15.5-1,16.86-17.23C37.71,20.26,35,1.87,20.42,3.51Z"/><path class="cls-3" d="M20.35,2l.07,12.29-4.5-3a1.31,1.31,0,0,0-1.84.46,1.29,1.29,0,0,0,.33,1.9l-9.86.15S6.52,3.29,20.35,2Z"/></svg>