<svg id="Layer_1" data-name="Layer 1" xmlns="http://www.w3.org/2000/svg" viewBox="0 0 40 40"><defs><style>.cls-1{fill:none;stroke-width:2.8px;}.cls-1,.cls-2{stroke:#f5dc9f;stroke-miterlimit:10;}.cls-2{fill:#f5dc9f;stroke-width:0.1px;}</style></defs><rect class="cls-1" x="2.29" y="2.54" width="35.42" height="35.42" rx="17.71"/><path class="cls-2" d="M20.26,3.61V7.29A1.69,1.69,0,0,1,21.77,9l0,20.71s-.15,1.5-1.47,1.7v5.44a5.75,5.75,0,0,0,4.72-1V31.5a2,2,0,0,1-1.82-1.78l.07-13.82A1.77,1.77,0,0,1,25,14.4V4.45A10.5,10.5,0,0,0,20.26,3.61Z"/><path class="cls-2" d="M25,3.76V14.4a1.68,1.68,0,0,1,1.71,1.75V29.89A1.69,1.69,0,0,1,25,31.5v5.2s4.35-1.35,5.3-3.55V31.43a1.8,1.8,0,0,1-2.05-1.71l0-7.49A1.83,1.83,0,0,1,30,20.49L29.53,5.34A8.82,8.82,0,0,0,25,3.76Z"/><path class="cls-2" d="M29.56,6.4,30,20.49a1.82,1.82,0,0,1,1.73,1.74v7.49a2,2,0,0,1-1.41,1.71v2.2S37,29.61,37,19.34a16.06,16.06,0,0,0-7.49-14"/><path class="cls-2" d="M20.26,2V7.29s-1.84-.08-2,1.41v21a1.8,1.8,0,0,0,2,1.75v5.44a5.78,5.78,0,0,1-5.36-.61V31.44a1.83,1.83,0,0,0,2.15-1.77V22.23a1.87,1.87,0,0,0-1.75-1.77V4.16A8.23,8.23,0,0,1,20.26,2Z"/><path class="cls-2" d="M15.3,3.57V20.46a1.78,1.78,0,0,0-1.74,1.77v7.49a1.72,1.72,0,0,0,1.34,1.72v4.81a9.28,9.28,0,0,1-5.39-3V31.14a1.87,1.87,0,0,0,2.9-1.42V16.31a2,2,0,0,0-1.81-2V6.16S12.91,3.45,15.3,3.57Z"/><path class="cls-2" d="M9.39,33.74l.12-2.6a2.08,2.08,0,0,1-.66-1.7V16.15s-.12-1.52,1.75-1.82V5.59S2.8,10.28,3,19,6.41,32.05,9.39,33.74Z"/></svg>