<svg id="Layer_1" data-name="Layer 1" xmlns="http://www.w3.org/2000/svg" viewBox="0 0 40 40"><defs><style>.cls-1{fill:#231d10;}</style></defs><path class="cls-1" d="M20,1.12A18.88,18.88,0,1,0,38.88,20,18.88,18.88,0,0,0,20,1.12Zm8.67,17.72L25.33,22.1a.89.89,0,0,0-.26.79l.79,4.61a.91.91,0,0,1-1.31.95l-4.13-2.18a1,1,0,0,0-.84,0l-4.13,2.18a.91.91,0,0,1-1.31-.95l.79-4.61a.89.89,0,0,0-.26-.79l-3.34-3.26a.9.9,0,0,1,.5-1.54l4.62-.67a.93.93,0,0,0,.68-.49L19.19,12a.9.9,0,0,1,1.62,0l2.06,4.19a.93.93,0,0,0,.68.49l4.62.67A.9.9,0,0,1,28.67,18.84Z"/></svg>