<svg id="Layer_1" data-name="Layer 1" xmlns="http://www.w3.org/2000/svg" viewBox="0 0 40 40"><defs><style>.cls-1{fill:none;stroke:#f5dc9f;stroke-miterlimit:10;stroke-width:2.8px;}.cls-2{fill:#f5dc9f;}</style></defs><g id="bestKnown"><circle class="cls-1" cx="20" cy="20" r="17.69"/><path class="cls-2" d="M20.81,11.89l2.09,4.22a.91.91,0,0,0,.68.5l4.65.67a.91.91,0,0,1,.51,1.55l-3.37,3.28a.9.9,0,0,0-.26.81l.79,4.63a.91.91,0,0,1-1.31,1l-4.17-2.19a.89.89,0,0,0-.84,0l-4.17,2.19a.91.91,0,0,1-1.31-1l.79-4.63a.9.9,0,0,0-.26-.81l-3.37-3.28a.91.91,0,0,1,.51-1.55l4.65-.67a.91.91,0,0,0,.68-.5l2.09-4.22A.9.9,0,0,1,20.81,11.89Z"/></g></svg>