<svg id="Layer_1" data-name="Layer 1" xmlns="http://www.w3.org/2000/svg" viewBox="0 0 40 40"><defs><style>.cls-1{fill:none;stroke:#231d10;stroke-miterlimit:10;stroke-width:2.8px;}.cls-2{fill:#231d10;}</style></defs><circle class="cls-1" cx="20" cy="20" r="17.71"/><path class="cls-2" d="M20.81,11.88,22.9,16.1a.9.9,0,0,0,.68.5l4.66.68a.91.91,0,0,1,.51,1.55l-3.38,3.29a.9.9,0,0,0-.26.8l.8,4.64a.91.91,0,0,1-1.32,1l-4.17-2.19a.89.89,0,0,0-.84,0l-4.17,2.19a.91.91,0,0,1-1.32-1l.8-4.64a.9.9,0,0,0-.26-.8l-3.38-3.29a.91.91,0,0,1,.51-1.55l4.66-.68a.9.9,0,0,0,.68-.5l2.09-4.22A.9.9,0,0,1,20.81,11.88Z"/></svg>