<svg id="Layer_1" data-name="Layer 1" xmlns="http://www.w3.org/2000/svg" viewBox="0 0 40 40"><defs><style>.cls-1,.cls-2{fill:none;stroke:#f5dc9f;stroke-miterlimit:10;}.cls-1{stroke-width:2.8px;}.cls-2{stroke-width:0.1px;}.cls-3{fill:#f5dc9f;}</style></defs><rect class="cls-1" x="2.29" y="2.29" width="35.42" height="35.42" rx="17.71"/><path class="cls-2" d="M23.51,20,29,14.51A2.48,2.48,0,1,0,25.53,11L20,16.49,14.52,11A2.48,2.48,0,0,0,11,14.46L16.49,20,11,25.49A2.48,2.48,0,1,0,14.47,29L20,23.51,25.48,29A2.48,2.48,0,0,0,29,25.54Z"/><path class="cls-3" d="M20,3.59v13l5.53-5.47a2.35,2.35,0,0,1,3.51,0,2.55,2.55,0,0,1,.36,3l-5.88,5.94L29,25.59a2.51,2.51,0,0,1,0,3.49,2.36,2.36,0,0,1-3.5,0L20,23.57l.21,13a15.46,15.46,0,0,0,15.56-9.73c4.85-11.09-2.08-16.19-2.08-16.19L29.05,5.17Z"/><polygon class="cls-3" points="27.01 4.81 21.83 2.38 20.37 3.19 20.76 4.51 27.01 4.81"/><path class="cls-3" d="M20,3.59v13L14.52,11A2.43,2.43,0,0,0,11,11a2.34,2.34,0,0,0-.49,2.83,2.47,2.47,0,0,0,.72.93L16.49,20l-5.68,5.67a2.48,2.48,0,0,0,3.45,3.53L20,23.57,20.2,36.8s-7.43,2.29-13.31-5.7S3.33,16.72,3.33,16.72L6.15,9l6.69-5.18L18.32,2.7Z"/></svg>