<svg id="Layer_1" data-name="Layer 1" xmlns="http://www.w3.org/2000/svg" viewBox="0 0 40 40"><defs><style>.cls-1{fill:none;stroke:#f5dc9f;stroke-miterlimit:10;stroke-width:2.8px;}.cls-2{fill:#f5dc9f;}</style></defs><g id="close"><rect class="cls-1" x="2.29" y="2.29" width="35.42" height="35.42" rx="17.71"/><path class="cls-2" d="M11,29h0a2.49,2.49,0,0,1,0-3.51L25.53,11A2.49,2.49,0,0,1,29,11h0a2.49,2.49,0,0,1,0,3.51L14.47,29A2.49,2.49,0,0,1,11,29Z"/><path class="cls-2" d="M29,29.05h0a2.47,2.47,0,0,1-3.5,0L11,14.46A2.49,2.49,0,0,1,11,11h0a2.47,2.47,0,0,1,3.5,0L29,25.54A2.49,2.49,0,0,1,29,29.05Z"/></g></svg>