<svg id="Layer_1" data-name="Layer 1" xmlns="http://www.w3.org/2000/svg" viewBox="0 0 40 40"><defs><style>.cls-1{fill:none;stroke-width:2.8px;}.cls-1,.cls-2{stroke:#f5dc9f;stroke-miterlimit:10;}.cls-2{fill:#f5dc9f;stroke-width:0.1px;}</style></defs><rect class="cls-1" x="2.29" y="2.62" width="35.42" height="35.42" rx="17.71"/><path class="cls-2" d="M20.27,3.49V21.85L28,21.72l1.41-1L23,16.25a1.58,1.58,0,0,1-.19-2,1.48,1.48,0,0,1,2-.24L32.6,19.5a1.59,1.59,0,0,1,.66,1.32,1.53,1.53,0,0,1-.8,1.15l-7.36,5.2L25,36.33s13.14-3.12,12.12-18.4C37.09,17.93,36.5,3.07,20.27,3.49Z"/><path class="cls-2" d="M25,37.75l.08-10.58A1.4,1.4,0,0,1,23,26.88a1.49,1.49,0,0,1,.24-1.78L28,21.72l-7.74.13L12,21.72l4.56,3.19a1.44,1.44,0,0,1,.27,2.2,1.34,1.34,0,0,1-1.88.13L7.41,22a1.58,1.58,0,0,1-.75-1.26,1.53,1.53,0,0,1,.75-1.23l6.81-4.93H3.88S-2.21,26,11.38,35.36A21.26,21.26,0,0,0,25,37.75Z"/><path class="cls-2" d="M20.27,2V21.85L12,21.72l-1.44-1,6.15-4.47a1.49,1.49,0,0,0,.2-2,1.46,1.46,0,0,0-1.73-.34l-.91.65H3.08S5.5,3.81,20.27,2Z"/></svg>