<svg id="Layer_1" data-name="Layer 1" xmlns="http://www.w3.org/2000/svg" viewBox="0 0 40 40"><defs><style>.cls-1{fill:#231d10;}</style></defs><path class="cls-1" d="M20,1.12h0A18.88,18.88,0,0,0,1.12,20h0A18.88,18.88,0,0,0,20,38.88h0A18.88,18.88,0,0,0,38.88,20h0A18.88,18.88,0,0,0,20,1.12Zm5.89,8.49v2.8H23.21v.05h-.3c-.47.24-.87.41-1,.92a4,4,0,0,0-.15,1.27v2.47h3.82a1.37,1.37,0,0,1-.05.25c0,.08,0,.17,0,.25a2.16,2.16,0,0,0,0,.27.57.57,0,0,1,0,.13.73.73,0,0,1-.05.12c-.05.35,0,.69-.1,1a1.84,1.84,0,0,0-.05.25.48.48,0,0,1,0,.12c0,.06,0,.09,0,.13a2.43,2.43,0,0,1,0,.27,1.37,1.37,0,0,0-.05.25,1.17,1.17,0,0,1-.05.27,2.09,2.09,0,0,1,0,.25A1.58,1.58,0,0,0,25,21c0,.09,0,.19,0,.27H21.72V31.4H17.51V21.24H14.09V17.12h3.42V13.63c0-.1,0-.2,0-.3a2.34,2.34,0,0,0,0-.3,1.86,1.86,0,0,1,.05-.27c0-.1,0-.21.05-.3v-.05a4,4,0,0,1,.39-1.16A4.59,4.59,0,0,1,18.87,10a4.9,4.9,0,0,1,1.19-.88,12.69,12.69,0,0,1,1.22-.45h.29v0h.3V8.6h2.58v.05h.79v0h.55C26,8.8,25.89,9.4,25.89,9.61Z"/></svg>