<svg id="Layer_1" data-name="Layer 1" xmlns="http://www.w3.org/2000/svg" viewBox="0 0 40 40"><defs><style>.cls-1{fill:#231d10;stroke-width:0.1px;}.cls-1,.cls-2{stroke:#231d10;stroke-miterlimit:10;}.cls-2{fill:none;stroke-width:2.8px;}</style></defs><g id="c"><g id="d"><g id="e"><path class="cls-1" d="M25.84,8.6h-.55v0h-.8V8.5h-2.6v.05h-.3v0h-.3c-.42.16-.83.27-1.23.46a4.74,4.74,0,0,0-1.2.89A4.07,4.07,0,0,0,18,11.18a3.6,3.6,0,0,0-.4,1.17v.05c-.09.08,0,.2-.05.3a1.78,1.78,0,0,0-.05.28c0,.12,0,.18-.05.3a1.5,1.5,0,0,0,0,.3V17.1H14v4.15h3.45V31.5h4.25V21.25H25c.07-.08.05-.18.05-.28a1,1,0,0,1,.05-.25c0-.08,0-.16,0-.25a1.86,1.86,0,0,0,.05-.27,1.37,1.37,0,0,1,0-.25,2.43,2.43,0,0,1,0-.27s0-.07.05-.13v-.12a.92.92,0,0,1,.05-.25c.05-.36,0-.7.1-1.05,0,0,0-.08,0-.13v-.12a1.16,1.16,0,0,1,.05-.28c0-.08,0-.17,0-.25a1.58,1.58,0,0,0,.05-.25H21.74V14.6a4,4,0,0,1,.15-1.27c.17-.52.57-.69,1.05-.93h.3v-.05h2.7V9.53C25.94,9.31,26,8.7,25.84,8.6Z"/><path class="cls-1" d="M25.84,8.6h-.55v0h-.8V8.5h-2.6v.05h-.3v0h-.3c-.42.16-.83.27-1.23.46a4.74,4.74,0,0,0-1.2.89A4.07,4.07,0,0,0,18,11.18a3.6,3.6,0,0,0-.4,1.17v.05c-.09.08,0,.2-.05.3a1.78,1.78,0,0,0-.05.28c0,.12,0,.18-.05.3a1.5,1.5,0,0,0,0,.3V17.1H14v4.15h3.45V31.5h4.25V21.25H25c.07-.08.05-.18.05-.28a1,1,0,0,1,.05-.25c0-.08,0-.16,0-.25a1.86,1.86,0,0,0,.05-.27,1.37,1.37,0,0,1,0-.25,2.43,2.43,0,0,1,0-.27s0-.07.05-.13v-.12a.92.92,0,0,1,.05-.25c.05-.36,0-.7.1-1.05,0,0,0-.08,0-.13v-.12a1.16,1.16,0,0,1,.05-.28c0-.08,0-.17,0-.25a1.58,1.58,0,0,0,.05-.25H21.74V14.6a4,4,0,0,1,.15-1.27c.17-.52.57-.69,1.05-.93h.3v-.05h2.7V9.53C25.94,9.31,26,8.7,25.84,8.6Z"/></g></g></g><g id="f"><rect class="cls-2" x="2.29" y="2.29" width="35.42" height="35.42" rx="17.71"/></g></svg>