<svg id="Layer_1" data-name="Layer 1" xmlns="http://www.w3.org/2000/svg" viewBox="0 0 40 40"><defs><style>.cls-1{fill:#f5dc9f;}.cls-2{fill:none;stroke:#f5dc9f;stroke-miterlimit:10;stroke-width:2.8px;}</style></defs><g id="facebook"><g id="c"><g id="d"><g id="e"><path class="cls-1" d="M25.83,8.61h-.55v0h-.8V8.51H21.89v.05h-.3v0h-.3a13,13,0,0,0-1.23.47,4.47,4.47,0,0,0-1.2.88A4.41,4.41,0,0,0,18,11.19a3.86,3.86,0,0,0-.4,1.17v.05c-.08.08,0,.2-.05.3a1.86,1.86,0,0,0-.05.27,1.34,1.34,0,0,1-.05.3c0,.1,0,.21,0,.3V17.1H14.05v4.15h3.44V31.49h4.25V21.25H25c.07-.08,0-.18,0-.28a1.84,1.84,0,0,1,.05-.25c0-.08,0-.16,0-.25a1.08,1.08,0,0,0,.05-.27,1.37,1.37,0,0,1,.05-.25c0-.09,0-.19,0-.27s.05-.07.05-.13a.48.48,0,0,0,0-.12,1.58,1.58,0,0,1,0-.25c.05-.36,0-.7.1-1.05,0,0,0-.08.05-.13a.48.48,0,0,0,0-.12,2,2,0,0,1,.05-.28c0-.08,0-.16,0-.25a1.37,1.37,0,0,0,0-.25H21.74V14.61a3.85,3.85,0,0,1,.15-1.28c.17-.51.56-.68,1-.92h.3v-.05h2.7V9.54C25.93,9.33,26,8.72,25.83,8.61Z"/><path class="cls-1" d="M25.83,8.61h-.55v0h-.8V8.51H21.89v.05h-.3v0h-.3a13,13,0,0,0-1.23.47,4.47,4.47,0,0,0-1.2.88A4.41,4.41,0,0,0,18,11.19a3.86,3.86,0,0,0-.4,1.17v.05c-.08.08,0,.2-.05.3a1.86,1.86,0,0,0-.05.27,1.34,1.34,0,0,1-.05.3c0,.1,0,.21,0,.3V17.1H14.05v4.15h3.44V31.49h4.25V21.25H25c.07-.08,0-.18,0-.28a1.84,1.84,0,0,1,.05-.25c0-.08,0-.16,0-.25a1.08,1.08,0,0,0,.05-.27,1.37,1.37,0,0,1,.05-.25c0-.09,0-.19,0-.27s.05-.07.05-.13a.48.48,0,0,0,0-.12,1.58,1.58,0,0,1,0-.25c.05-.36,0-.7.1-1.05,0,0,0-.08.05-.13a.48.48,0,0,0,0-.12,2,2,0,0,1,.05-.28c0-.08,0-.16,0-.25a1.37,1.37,0,0,0,0-.25H21.74V14.61a3.85,3.85,0,0,1,.15-1.28c.17-.51.56-.68,1-.92h.3v-.05h2.7V9.54C25.93,9.33,26,8.72,25.83,8.61Z"/></g></g></g><g id="f"><rect class="cls-2" x="2.31" y="2.31" width="35.38" height="35.38" rx="17.69"/></g></g></svg>