<svg id="Layer_1" data-name="Layer 1" xmlns="http://www.w3.org/2000/svg" viewBox="0 0 40 40"><defs><style>.cls-1,.cls-2{fill:none;}.cls-1,.cls-2,.cls-3{stroke:#f5dc9f;stroke-miterlimit:10;}.cls-1{stroke-width:2.8px;}.cls-2,.cls-3{stroke-width:0.1px;}.cls-3,.cls-4{fill:#f5dc9f;}</style></defs><rect class="cls-1" x="2.29" y="2.41" width="35.42" height="35.42" rx="17.71"/><path class="cls-2" d="M10,14.1h4.58a2.78,2.78,0,0,1,2.56-1.74,3,3,0,0,1,2.57,1.74H30.13a1,1,0,0,1,1,1,1,1,0,0,1-1,1H19.75a2.82,2.82,0,0,1-2.57,1.72,3.24,3.24,0,0,1-2.56-1.66L10,16.1s-.78-.35-.78-1C9.26,15.08,9.22,14.1,10,14.1Z"/><circle class="cls-3" cx="17.17" cy="15.1" r="1.1"/><path class="cls-2" d="M9.68,19.13H22.26a2.83,2.83,0,0,1,2.68-2,2.67,2.67,0,0,1,2.56,2h2.95a1,1,0,0,1,.88,1,.94.94,0,0,1-.74,1H27.31a2.84,2.84,0,0,1-2.37,1.5,2.8,2.8,0,0,1-2.47-1.48l-12.79,0a1,1,0,0,1-.89-1A1,1,0,0,1,9.68,19.13Z"/><circle class="cls-3" cx="24.89" cy="19.87" r="1.1"/><path class="cls-2" d="M9.51,24.15h9A2.73,2.73,0,0,1,21,22.45a2.54,2.54,0,0,1,2.52,1.71h6.79a1,1,0,0,1,.82,1s-.05.9-.82,1H23.58A2.71,2.71,0,0,1,21,27.9a3.18,3.18,0,0,1-2.6-1.74l-8.92,0a1,1,0,0,1-.84-1A1,1,0,0,1,9.51,24.15Z"/><circle class="cls-3" cx="21.03" cy="25.17" r="1.1"/><path class="cls-3" d="M19.91,3.57,19.75,14.1H30.13a.91.91,0,0,1,1,1,1.06,1.06,0,0,1-1,1H19.75v3.05h2.51s.68-2.18,2.68-2a2.58,2.58,0,0,1,2.56,2h2.95s.84-.05.88,1a.86.86,0,0,1-.74,1H27.31a2.42,2.42,0,0,1-2.37,1.5,2.58,2.58,0,0,1-2.47-1.48H19.75v1.61s2.76-1.25,3.8,1.43h6.79a.87.87,0,0,1,.82,1,.86.86,0,0,1-.82,1H23.58A2.5,2.5,0,0,1,21,27.9v9.15s15.83.78,15.91-16.93C36.94,20.12,37.06,3.33,19.91,3.57Z"/><path class="cls-4" d="M20,2.41,19.75,14.1a2.7,2.7,0,0,0-2.57-1.74,2.44,2.44,0,0,0-2.56,1.74H10s-.8-.15-.78,1c0,0-.13.69.78,1l4.58,0a2.92,2.92,0,0,0,2.56,1.66,2.57,2.57,0,0,0,2.57-1.72v3.05H9.68a1,1,0,0,0-.89,1.18,1,1,0,0,0,.89.79l10.07,0v1.61a2.13,2.13,0,0,0-1.27,1.43h-9a.91.91,0,0,0-.84,1s-.13.77.84,1l8.92,0A2.76,2.76,0,0,0,21,27.9v9.81S6.46,37.22,4.16,24.86c0,0-4.78-4.35,1.73-14.61S20,2.41,20,2.41Z"/></svg>