<svg id="Layer_1" data-name="Layer 1" xmlns="http://www.w3.org/2000/svg" viewBox="0 0 40 40"><defs><style>.cls-1{fill:#231d10;stroke-width:0.1px;}.cls-1,.cls-2{stroke:#231d10;stroke-miterlimit:10;}.cls-2{fill:none;stroke-width:2.8px;}</style></defs><g id="c"><path class="cls-1" d="M29.08,11.91h0a2.08,2.08,0,0,1-1.77,2.27l-14.62,0a2.08,2.08,0,0,1-1.77-2.27h0a2.08,2.08,0,0,1,1.77-2.27l14.62,0a2.08,2.08,0,0,1,1.77,2.27Z"/><path class="cls-1" d="M29.08,28.11h0a2.08,2.08,0,0,1-1.77,2.27l-14.62,0a2.08,2.08,0,0,1-1.77-2.27h0a2.08,2.08,0,0,1,1.77-2.27l14.62,0a2.08,2.08,0,0,1,1.77,2.27Z"/><path class="cls-1" d="M28.32,20h0c0,1.25-.73,2.27-1.62,2.27l-13.4,0c-.89,0-1.62-1-1.62-2.27h0c0-1.25.72-2.27,1.62-2.27l13.4,0C27.59,17.74,28.32,18.76,28.32,20Z"/></g><g id="d"><rect class="cls-2" x="2.29" y="2.29" width="35.42" height="35.42" rx="17.71"/></g></svg>