<svg id="Layer_1" data-name="Layer 1" xmlns="http://www.w3.org/2000/svg" viewBox="0 0 40 40"><defs><style>.cls-1{fill:#f5dc9f;}.cls-2{fill:none;stroke:#f5dc9f;stroke-miterlimit:10;stroke-width:2.8px;}</style></defs><g id="hamburger"><g id="c"><path class="cls-1" d="M29.07,11.92h0a2.06,2.06,0,0,1-1.77,2.26H12.7a2.08,2.08,0,0,1-1.77-2.27h0A2.08,2.08,0,0,1,12.7,9.63l14.6,0a2.08,2.08,0,0,1,1.77,2.27Z"/><path class="cls-1" d="M29.07,28.1h0a2.08,2.08,0,0,1-1.77,2.27l-14.6,0a2.08,2.08,0,0,1-1.77-2.27h0a2.06,2.06,0,0,1,1.77-2.26H27.3a2.08,2.08,0,0,1,1.77,2.27Z"/><path class="cls-1" d="M28.31,20h0c0,1.25-.72,2.27-1.61,2.26H13.31c-.89,0-1.62-1-1.62-2.27h0c0-1.25.72-2.27,1.61-2.27l13.39,0C27.58,17.74,28.31,18.76,28.31,20Z"/></g><g id="d"><rect class="cls-2" x="2.31" y="2.31" width="35.38" height="35.38" rx="17.69"/></g></g></svg>