<svg id="Layer_1" data-name="Layer 1" xmlns="http://www.w3.org/2000/svg" viewBox="0 0 40 40"><defs><style>.cls-1{fill:#231d10;}</style></defs><path class="cls-1" d="M20,1.12A18.88,18.88,0,1,0,38.88,20,18.88,18.88,0,0,0,20,1.12ZM29,28a2.05,2.05,0,0,1-1.75,2.25H12.75A2.06,2.06,0,0,1,11,28a2.06,2.06,0,0,1,1.75-2.25l14.5,0A2.05,2.05,0,0,1,29,28ZM11.75,20c0-1.24.72-2.25,1.6-2.25l13.3,0c.88,0,1.6,1,1.6,2.25s-.72,2.25-1.6,2.25l-13.3,0C12.47,22.24,11.75,21.23,11.75,20ZM29,12a2.06,2.06,0,0,1-1.75,2.25l-14.5,0A2.05,2.05,0,0,1,11,12a2.05,2.05,0,0,1,1.75-2.25h14.5A2.06,2.06,0,0,1,29,12Z"/></svg>