<svg id="Layer_1" data-name="Layer 1" xmlns="http://www.w3.org/2000/svg" viewBox="0 0 40 40"><defs><style>.cls-1,.cls-3,.cls-4{fill:none;}.cls-1,.cls-2,.cls-3,.cls-4{stroke:#231d10;stroke-miterlimit:10;}.cls-1{stroke-width:1.9px;}.cls-2{fill:#231d10;stroke-width:0.3px;}.cls-3{stroke-width:0.63px;}.cls-4{stroke-width:2.8px;}</style></defs><path class="cls-1" d="M27.76,15.18H25a.61.61,0,0,1-.61-.62V12.89a.62.62,0,0,0-.62-.62H16.14a.61.61,0,0,0-.61.62v1.67a.62.62,0,0,1-.62.62H12.14a1.64,1.64,0,0,0-1.67,1.6v8.88a1.64,1.64,0,0,0,1.67,1.6H27.76a1.64,1.64,0,0,0,1.67-1.6V16.78a1.64,1.64,0,0,0-1.67-1.6Z"/><circle class="cls-2" cx="20" cy="20.82" r="3.21"/><rect class="cls-3" x="25.18" y="17.22" width="1.99" height="1.23" rx="0.16"/><rect class="cls-4" x="2.29" y="2.29" width="35.42" height="35.42" rx="17.71"/></svg>