<svg id="Layer_1" data-name="Layer 1" xmlns="http://www.w3.org/2000/svg" viewBox="0 0 40 40"><defs><style>.cls-1{fill:#231d10;}</style></defs><path class="cls-1" d="M27.7,16.18H25a1.57,1.57,0,0,1-1.57-1.57V13.3H16.53v1.31A1.57,1.57,0,0,1,15,16.18H12.21a.66.66,0,0,0-.7.63v8.8a.66.66,0,0,0,.7.63H27.7a.66.66,0,0,0,.69-.63v-8.8A.66.66,0,0,0,27.7,16.18ZM20,24.57a3.76,3.76,0,1,1,3.76-3.76A3.76,3.76,0,0,1,20,24.57Zm7.5-6.27a.55.55,0,0,1-.55.55H25.3a.55.55,0,0,1-.54-.55v-.9a.54.54,0,0,1,.54-.54H27a.55.55,0,0,1,.55.54Z"/><rect class="cls-1" x="25.53" y="17.63" width="1.2" height="0.45"/><path class="cls-1" d="M20,1.12A18.88,18.88,0,1,0,38.88,20,18.88,18.88,0,0,0,20,1.12ZM30.32,25.61a2.6,2.6,0,0,1-2.62,2.56H12.21a2.59,2.59,0,0,1-2.62-2.56v-8.8a2.59,2.59,0,0,1,2.62-2.56H14.6V13a1.58,1.58,0,0,1,1.57-1.58h7.56A1.57,1.57,0,0,1,25.3,13v1.3h2.4a2.6,2.6,0,0,1,2.62,2.56Z"/></svg>