<svg id="Layer_1" data-name="Layer 1" xmlns="http://www.w3.org/2000/svg" viewBox="0 0 40 40"><defs><style>.cls-1,.cls-3,.cls-4{fill:none;}.cls-1,.cls-2,.cls-3,.cls-4{stroke:#f5dc9f;stroke-miterlimit:10;}.cls-1{stroke-width:1.9px;}.cls-2{fill:#f5dc9f;stroke-width:0.3px;}.cls-3{stroke-width:0.63px;}.cls-4{stroke-width:2.8px;}</style></defs><g id="iamges"><path class="cls-1" d="M27.75,15.18H25a.61.61,0,0,1-.62-.61V12.89a.61.61,0,0,0-.61-.61H16.15a.61.61,0,0,0-.62.61v1.68a.61.61,0,0,1-.61.61H12.15a1.64,1.64,0,0,0-1.67,1.61v8.86a1.63,1.63,0,0,0,1.67,1.6h15.6a1.63,1.63,0,0,0,1.67-1.6V16.79a1.64,1.64,0,0,0-1.67-1.61Z"/><circle class="cls-2" cx="20" cy="20.82" r="3.2"/><rect class="cls-3" x="25.18" y="17.22" width="1.98" height="1.23" rx="0.16"/><rect class="cls-4" x="2.31" y="2.31" width="35.38" height="35.38" rx="17.69"/></g></svg>