<svg id="Layer_1" data-name="Layer 1" xmlns="http://www.w3.org/2000/svg" viewBox="0 0 40 40"><defs><style>.cls-1{fill:#f5dc9f;}</style></defs><path class="cls-1" d="M25.52,12.08h-11a2,2,0,0,0-2,2V25.9a2,2,0,0,0,2,2h11a2,2,0,0,0,2-2V14.09A2,2,0,0,0,25.52,12.08ZM20,24.62A4.62,4.62,0,1,1,24.62,20,4.62,4.62,0,0,1,20,24.62Zm5.25-9.57a1,1,0,0,1,0-2,1,1,0,1,1,0,2Z"/><path class="cls-1" d="M20,17.3A2.7,2.7,0,1,0,22.7,20,2.7,2.7,0,0,0,20,17.3Z"/><path class="cls-1" d="M20,1.12A18.88,18.88,0,1,0,38.88,20,18.88,18.88,0,0,0,20,1.12ZM30.22,25.9a4.72,4.72,0,0,1-4.7,4.72h-11A4.73,4.73,0,0,1,9.77,25.9V14.09a4.72,4.72,0,0,1,4.72-4.7h11a4.71,4.71,0,0,1,4.7,4.7Z"/></svg>