<svg id="Layer_1" data-name="Layer 1" xmlns="http://www.w3.org/2000/svg" viewBox="0 0 40 40"><defs><style>.cls-1,.cls-2{fill:none;}.cls-1{stroke:#242015;stroke-linecap:round;stroke-linejoin:round;stroke-width:0.6px;}.cls-2{stroke:#231d10;stroke-miterlimit:10;stroke-width:2.8px;}.cls-3{fill:#231d10;}</style></defs><ellipse class="cls-1" cx="19.96" cy="13.81" rx="6.55" ry="6.15"/><path class="cls-1" d="M10.46,30.54C12.41,24.26,16,20.38,20,20.4s7.58,4,9.5,10.3Z"/><rect class="cls-2" x="2.29" y="2.29" width="35.42" height="35.42" rx="17.71"/><path class="cls-3" d="M19.59,3.39l0,4s6.75.45,6.65,6.42a5.8,5.8,0,0,1-5.64,6.07l0,.52s7,1.38,8.68,10.3H20.11l0,5.82s20.15.53,16.37-16.78l.91-1.35S33.47,2.8,19.59,3.39Z"/><path class="cls-3" d="M19.59,3.39l0,4a7.45,7.45,0,0,0-6.49,6.42,6.8,6.8,0,0,0,5.75,6.07l.13.52s-6,.35-8.56,10.14l9.65.16,0,5.82S4.19,37.64,3.26,20.9,17.47,3.06,17.47,3.06Z"/></svg>