<svg id="Layer_1" data-name="Layer 1" xmlns="http://www.w3.org/2000/svg" viewBox="0 0 40 40"><defs><style>.cls-1,.cls-2,.cls-3{fill:none;}.cls-1,.cls-2,.cls-3,.cls-5{stroke:#f5dc9f;stroke-miterlimit:10;}.cls-1{stroke-width:2.8px;}.cls-2,.cls-5{stroke-width:0.1px;}.cls-3{stroke-width:0.4px;}.cls-4,.cls-5{fill:#f5dc9f;}</style></defs><rect class="cls-1" x="2.29" y="2.44" width="35.42" height="35.42" rx="17.71"/><path class="cls-2" d="M11.51,26.45V14.06s-.4-2.48,2.67-3.37h2.48s2.67.3,2.87,2.78v13a3,3,0,0,1-2.77,3.17H14A3,3,0,0,1,11.51,26.45Z"/><path class="cls-3" d="M20.67,26.44V14s-.4-2.48,2.67-3.38h2.48s2.67.3,2.87,2.78v13a3,3,0,0,1-2.77,3.18H23.14A3,3,0,0,1,20.67,26.44Z"/><path class="cls-4" d="M20,3l3.34,7.31h2.48s2.87.66,2.87,2.86v13.4s0,3.27-2.77,3.27H23.1l.25,7.31s10.22-1.84,11.55-7.26,4.1-12.19,1.39-16.8S29.59,4.26,26.42,4s-3.49-1.82-3.49-1.82Z"/><path class="cls-5" d="M21.22,2.44l2.12,8.2A3.1,3.1,0,0,0,20.67,14V26.4a3.28,3.28,0,0,0,2.47,3.17l.2,6.5s-7,3.39-9.73-.31L14,29.62h2.78a2.87,2.87,0,0,0,2.77-3.17v-13s.09-2.26-2.87-2.78H14.18l-.39-6.86Z"/><path class="cls-4" d="M14.27,4.45l-.09,6.24a3.24,3.24,0,0,0-2.67,3.37l0,13A3.13,3.13,0,0,0,14,29.62l-.37,6.14S1.24,31.14,2.51,20.61,5.15,10.52,5.15,10.52l4.5-4.26Z"/><path class="cls-5" d="M11.06,11.45s4.93-1.63,8.48.18L17.26,8.81H13Z"/><path class="cls-5" d="M20.43,11.45s4.94-1.63,8.48.18L26.64,8.81H22.41Z"/><path class="cls-5" d="M22.39,29.57s5.46,1.2,6.31-1.93v3l-5.36.46Z"/></svg>