<svg id="Layer_1" data-name="Layer 1" xmlns="http://www.w3.org/2000/svg" viewBox="0 0 40 40"><defs><style>.cls-1,.cls-2{fill:none;}.cls-1,.cls-2,.cls-4{stroke:#231d10;stroke-miterlimit:10;}.cls-1{stroke-width:2.8px;}.cls-2,.cls-4{stroke-width:0.1px;}.cls-3,.cls-4{fill:#231d10;}</style></defs><rect class="cls-1" x="2.29" y="2.29" width="35.42" height="35.42" rx="17.71"/><path class="cls-2" d="M16.52,10.12l11.89,8.63s1.89,1.32,0,2.55L16.78,29.4s-2,1.5-2.6-.66V10.86S14.58,9,16.52,10.12Z"/><path class="cls-3" d="M14.18,4.74v6.12s.35-1.67,2.34-.74l11.89,8.63a1.4,1.4,0,0,1,0,2.55L16.78,29.4s-2.16,1.63-2.6-.66V11.79l-8.76-.18s-8.19,14.67,6.78,23.3c0,0,17,9.55,24.49-11,0,0,4.4-8.36-5.77-17.52C30.92,6.42,22.51-.45,14.18,4.74Z"/><polygon class="cls-4" points="14.62 3.55 14.18 12.36 6.17 12.14 5.2 11 9.51 6.06 14.62 3.55"/></svg>