<svg id="Layer_1" data-name="Layer 1" xmlns="http://www.w3.org/2000/svg" viewBox="0 0 40 40"><defs><style>.cls-1{fill:none;stroke:#f5dc9f;stroke-miterlimit:10;stroke-width:2.8px;}.cls-2{fill:#f5dc9f;}</style></defs><g id="population"><rect class="cls-1" x="2.31" y="2.31" width="35.38" height="35.38" rx="17.69"/><circle class="cls-2" cx="12.6" cy="14.2" r="3.07"/><path class="cls-2" d="M16.76,21.29a4.64,4.64,0,0,0-4.16-3.51,4.66,4.66,0,0,0-4.17,3.51.74.74,0,0,0,.59,1h.77V27.6a1.18,1.18,0,0,0,1.07,1.27h3.47A1.17,1.17,0,0,0,15.4,27.6V22.31h.78a.74.74,0,0,0,.58-1Z"/><path class="cls-2" d="M24.93,12.17l-6.61,7.31a.29.29,0,0,0,.21.49h1.32a.29.29,0,0,1,.29.29v7.81a.29.29,0,0,0,.29.29h2.74a.29.29,0,0,0,.29-.29V25a1.46,1.46,0,0,1,1.47-1.46h0A1.46,1.46,0,0,1,26.39,25v3.07a.29.29,0,0,0,.29.29h2.74a.29.29,0,0,0,.29-.29V20.26A.29.29,0,0,1,30,20h1.32a.3.3,0,0,0,.22-.49l-6.61-7.31Z"/></g></svg>