<svg id="Layer_1" data-name="Layer 1" xmlns="http://www.w3.org/2000/svg" viewBox="0 0 40 40"><defs><style>.cls-1{fill:none;stroke:#231d10;stroke-miterlimit:10;stroke-width:2.8px;}.cls-2{fill:#231d10;}</style></defs><g id="c"><rect class="cls-1" x="2.29" y="2.29" width="35.42" height="35.42" rx="17.71"/><circle class="cls-2" cx="12.59" cy="14.19" r="3.07"/><path class="cls-2" d="M16.76,21.3a4.66,4.66,0,0,0-4.17-3.52A4.64,4.64,0,0,0,8.42,21.3a.74.74,0,0,0,.58,1h.78v5.3a1.19,1.19,0,0,0,1.07,1.28h3.48a1.19,1.19,0,0,0,1.07-1.28v-5.3h.78a.74.74,0,0,0,.58-1Z"/><path class="cls-2" d="M24.93,12.16l-6.62,7.32a.3.3,0,0,0,.22.49h1.32a.29.29,0,0,1,.29.29v7.82a.29.29,0,0,0,.29.29h2.75a.29.29,0,0,0,.29-.29V25a1.46,1.46,0,0,1,1.46-1.46h0A1.46,1.46,0,0,1,26.39,25v3.08a.3.3,0,0,0,.3.29h2.74a.29.29,0,0,0,.29-.29V20.26A.3.3,0,0,1,30,20h1.31a.29.29,0,0,0,.22-.49l-6.62-7.32Z"/></g></svg>