<svg id="Layer_1" data-name="Layer 1" xmlns="http://www.w3.org/2000/svg" viewBox="0 0 40 40"><defs><style>.cls-1{fill:#f5dc9f;}</style></defs><path class="cls-1" d="M20,1.12A18.88,18.88,0,1,0,38.88,20,18.88,18.88,0,0,0,20,1.12ZM12.65,11.19A3,3,0,1,1,9.6,14.24,3,3,0,0,1,12.65,11.19ZM16.21,22.3h-.77v5.25a1.17,1.17,0,0,1-1.06,1.26H10.93a1.17,1.17,0,0,1-1.06-1.26V22.3H9.09a.74.74,0,0,1-.57-1,4.61,4.61,0,0,1,4.13-3.48,4.61,4.61,0,0,1,4.14,3.48h0A.74.74,0,0,1,16.21,22.3Zm15-2.33H29.93a.29.29,0,0,0-.29.29V28a.29.29,0,0,1-.29.29H26.63a.29.29,0,0,1-.29-.29V25a1.45,1.45,0,0,0-2.9,0V28a.29.29,0,0,1-.29.29H20.43a.29.29,0,0,1-.29-.29V20.26a.29.29,0,0,0-.29-.29H18.54a.29.29,0,0,1-.21-.49l6.56-7.25,6.56,7.25A.29.29,0,0,1,31.24,20Z"/></svg>