<svg id="Layer_1" data-name="Layer 1" xmlns="http://www.w3.org/2000/svg" viewBox="0 0 40 40"><defs><style>.cls-1,.cls-3{fill:none;}.cls-1,.cls-2,.cls-3{stroke:#f5dc9f;stroke-miterlimit:10;}.cls-1{stroke-width:2.8px;}.cls-2,.cls-4{fill:#f5dc9f;}.cls-2,.cls-3{stroke-width:0.1px;}.cls-3{stroke-linecap:round;}</style></defs><rect class="cls-1" x="2.29" y="2.29" width="35.42" height="35.42" rx="17.71"/><circle class="cls-2" cx="23" cy="16.6" r="4.21"/><path class="cls-3" d="M19.48,22.66a7,7,0,0,0,7.33-.24,6.82,6.82,0,0,0,2.87-7.86,7.06,7.06,0,0,0-6.9-5,7.4,7.4,0,0,0-6.14,4.13,6.9,6.9,0,0,0,.75,7.1"/><path class="cls-2" d="M19.48,3.54v7a6.37,6.37,0,0,1,7.13,0s4.25,1.91,3.22,7.74A6.32,6.32,0,0,1,26,22.88l.22,12.71s15.37-4.19,9.66-22C35.89,13.59,31,1.7,19.48,3.54Z"/><path class="cls-2" d="M20.31,2.85v7.23s-4.15,1.7-4.34,6a7.9,7.9,0,0,0,1,4.46l.19.26-5.95,7a1.2,1.2,0,0,0,.4,1.81l-3,2.79s-9.23-5.51-4.4-18.1C4.21,14.27,5.49,2.56,20.31,2.85Z"/><path class="cls-2" d="M7.78,33.12l3.85-3.54a1.45,1.45,0,0,0,2-.15c1-1,5.62-6.46,5.62-6.46l.56-.1a7.11,7.11,0,0,0,6.23,0l.22,12.71S14.66,39,7.78,33.12Z"/><polygon class="cls-2" points="19.09 23.12 19.46 22.69 19.93 22.92 19.09 23.12"/><path class="cls-4" d="M16.09,18.1a17.62,17.62,0,0,0,1.31,2.71l-2.24,2.4Z"/></svg>