<svg id="Layer_1" data-name="Layer 1" xmlns="http://www.w3.org/2000/svg" viewBox="0 0 40 40"><defs><style>.cls-1,.cls-2,.cls-3{fill:none;stroke:#231d10;}.cls-1,.cls-2{stroke-miterlimit:10;}.cls-1{stroke-width:2.8px;}.cls-2,.cls-3{stroke-width:0.07px;}.cls-3{stroke-linejoin:round;}.cls-4{fill:#231d10;}</style></defs><rect class="cls-1" x="2.29" y="2.29" width="35.42" height="35.42" rx="17.71"/><path class="cls-2" d="M24.65,13.82h6.07s1.2.11,1.16,1.22S31,16.2,31,16.2H24.65s-1.1.15-1.18-1.16A1,1,0,0,1,24.65,13.82Z"/><path class="cls-2" d="M20,17.86H30.72S32,18,31.88,19.09s-.89,1.18-1.16,1.15-10.72,0-10.72,0a1.1,1.1,0,0,1-1.18-1.15A1.25,1.25,0,0,1,20,17.86Z"/><path class="cls-2" d="M20,22H30.72a1.13,1.13,0,0,1,1.16,1.18,1,1,0,0,1-.94,1.17H20a1.1,1.1,0,0,1-1.14-1.17A1.07,1.07,0,0,1,20,22Z"/><path class="cls-3" d="M20,26H30.72a1.22,1.22,0,0,1,1.17,1.22,1.2,1.2,0,0,1-1.17,1.25H20a1.17,1.17,0,0,1-1.14-1.23A1.18,1.18,0,0,1,20,26Z"/><path class="cls-2" d="M9,12.34H20a1.15,1.15,0,0,1,1.21,1.19,16,16,0,0,1,0,1.94,1.17,1.17,0,0,1-1,1.17,1.2,1.2,0,0,1-1.32-.93v-1H15.68V26h1.26a1.2,1.2,0,0,1,.92,1.21,1.35,1.35,0,0,1-1,1.21H12.38a1.29,1.29,0,0,1-1.22-1.21C11.09,26.05,12.38,26,12.38,26h.89V14.72H10.2v.75A1.3,1.3,0,0,1,9,16.67c-1.15.07-1.21-1.2-1.21-1.2V13.53A1.24,1.24,0,0,1,9,12.34Z"/><path class="cls-4" d="M19.5,3.6A16.25,16.25,0,0,1,35.05,13.89H21.19s.2-1.6-1.23-1.49H5.63S9.24,3,19.5,3.6Z"/><path class="cls-4" d="M32.38,9.36s3.09,2.48,3.53,5.23.55,3.15.55,3.15l-20.78.12V14.75h3.14v1a1.19,1.19,0,0,0,1.14.94,1.09,1.09,0,0,0,1.18-.94l.05-1.82h3A.92.92,0,0,0,23.47,15c.17,1,.53,1.13.85,1.14s6.68,0,6.68,0,.92,0,.88-1.16A1,1,0,0,0,31,13.89H33.7Z"/><path class="cls-4" d="M35.71,15.76s1.78,5,.62,7.37H31.88s.24-1.27-1.41-1.18H15.68V17.86H20a1.24,1.24,0,0,0-1.14,1.23C18.75,20.25,20,20.24,20,20.24H30.72s1,.17,1.16-1.15a1.14,1.14,0,0,0-1.16-1.23l-8.38,0L29.92,17Z"/><polygon class="cls-4" points="15.93 17.73 16.01 17.99 21.2 17.83 18 17.32 15.93 17.73"/><path class="cls-4" d="M36.06,22.19l.48,1.3s-1.34,3.63-1.88,4l-2.77-.34s.19-1.08-1.17-1.2H20a1.13,1.13,0,0,0-1.14,1.21h-1s.2-.89-.92-1.21H15.68V22h3.9a1.21,1.21,0,0,0-.76,1.18A1.13,1.13,0,0,0,20,24.3h11a1,1,0,0,0,.94-1.17Z"/><path class="cls-4" d="M35.05,25.85S35,30.18,31.57,32,29.63,37.21,20,37,4,27.19,4,27.19,2.37,18.57,2.8,17.65s2.25-5.83,2.25-5.83l1.19-.67,2.41.34v.91s-.8.07-.9,1.13v1.94A1.12,1.12,0,0,0,9,16.67s1.11.14,1.23-1.2v-.75h3.07V26h-.89s-1.29,0-1.22,1.21a1.21,1.21,0,0,0,1.22,1.21H16.9a1.15,1.15,0,0,0,1-1.21h1S18.68,28.25,20,28.4s10.76,0,10.76,0a1.1,1.1,0,0,0,1.17-1.22c0-1.33-1.74-1.34-1.74-1.34l2.72-.15Z"/><path class="cls-4" d="M16.38,26s.81-.05,1.13.36.08-.62.08-.62Z"/><path class="cls-4" d="M17.8,27.44a1.14,1.14,0,0,1-1.23,1c-1.11,0,1.11.31,1.11.31Z"/></svg>