<svg id="Layer_1" data-name="Layer 1" xmlns="http://www.w3.org/2000/svg" viewBox="0 0 40 40"><defs><style>.cls-1,.cls-3{fill:none;}.cls-1,.cls-2,.cls-3{stroke:#f5dc9f;stroke-miterlimit:10;}.cls-1{stroke-width:1.9px;}.cls-2{fill:#f5dc9f;stroke-width:0.1px;}.cls-3{stroke-width:2.8px;}</style></defs><g id="video"><rect class="cls-1" x="11.91" y="13.02" width="16.33" height="14.14" rx="1.47"/><path class="cls-2" d="M22.21,21.12l-3.42-2a.51.51,0,0,0-.77.44v4.06a.51.51,0,0,0,.77.44l3.42-2a.51.51,0,0,0,0-.88Z"/><rect class="cls-2" x="11.77" y="16.21" width="16.46" height="0.93"/><rect class="cls-2" x="13.63" y="14.52" width="4.28" height="0.93" transform="translate(-4.11 23.82) rotate(-67.5)"/><rect class="cls-2" x="17.99" y="14.52" width="4.28" height="0.93" transform="translate(-1.42 27.85) rotate(-67.5)"/><rect class="cls-2" x="22.34" y="14.52" width="4.28" height="0.93" transform="translate(1.26 31.87) rotate(-67.5)"/><rect class="cls-3" x="2.31" y="2.31" width="35.38" height="35.38" rx="17.69"/></g></svg>