<svg id="Layer_1" data-name="Layer 1" xmlns="http://www.w3.org/2000/svg" viewBox="0 0 40 40"><defs><style>.cls-1{fill:#231d10;}</style></defs><path class="cls-1" d="M14.59,16l.84-2H13.35a.49.49,0,0,0-.49.49V16Z"/><polygon class="cls-1" points="16.01 15.95 18.91 15.95 19.75 13.94 16.85 13.94 16.01 15.95"/><polygon class="cls-1" points="20.33 15.95 23.11 15.95 24.02 13.94 21.17 13.94 20.33 15.95"/><path class="cls-1" d="M24.53,16h2.61V14.43a.49.49,0,0,0-.49-.49H25.44Z"/><path class="cls-1" d="M20,1.12A18.88,18.88,0,1,0,38.88,20,18.88,18.88,0,0,0,20,1.12Zm9.07,24.45A2.42,2.42,0,0,1,26.65,28H13.35a2.42,2.42,0,0,1-2.42-2.41V14.43A2.42,2.42,0,0,1,13.35,12h13.3a2.42,2.42,0,0,1,2.42,2.41Z"/><path class="cls-1" d="M19.78,17.26H12.86v8.31a.49.49,0,0,0,.49.49h13.3a.49.49,0,0,0,.49-.49V17.26Zm2.44,4.8-3.39,2a.68.68,0,0,1-.36.1.67.67,0,0,1-.34-.09.68.68,0,0,1-.36-.61v-4a.67.67,0,0,1,.36-.6.68.68,0,0,1,.7,0l3.39,2a.67.67,0,0,1,.34.6A.68.68,0,0,1,22.22,22.06Z"/></svg>