<svg id="Layer_1" data-name="Layer 1" xmlns="http://www.w3.org/2000/svg" viewBox="0 0 40 40"><defs><style>.cls-1,.cls-3{fill:none;}.cls-1,.cls-2,.cls-3{stroke:#231d10;stroke-miterlimit:10;}.cls-1{stroke-width:1.9px;}.cls-2{fill:#231d10;stroke-width:0.1px;}.cls-3{stroke-width:2.8px;}</style></defs><rect class="cls-1" x="11.9" y="13.01" width="16.35" height="14.16" rx="1.47"/><path class="cls-2" d="M22.21,21.13l-3.42-2a.51.51,0,0,0-.77.44V23.6a.51.51,0,0,0,.77.43l3.42-2a.51.51,0,0,0,0-.87Z"/><rect class="cls-2" x="11.76" y="16.2" width="16.48" height="0.94"/><rect class="cls-2" x="13.63" y="14.51" width="4.28" height="0.94" transform="translate(-4.11 23.81) rotate(-67.5)"/><rect class="cls-2" x="17.98" y="14.51" width="4.28" height="0.94" transform="translate(-1.42 27.84) rotate(-67.5)"/><rect class="cls-2" x="22.34" y="14.51" width="4.28" height="0.94" transform="translate(1.27 31.87) rotate(-67.5)"/><rect class="cls-3" x="2.29" y="2.29" width="35.42" height="35.42" rx="17.71"/></svg>