<svg id="Layer_1" data-name="Layer 1" xmlns="http://www.w3.org/2000/svg" viewBox="0 0 40 40"><defs><style>.cls-1,.cls-2,.cls-3,.cls-4{fill:none;stroke-miterlimit:10;}.cls-1,.cls-2,.cls-6{stroke:#231d10;}.cls-1{stroke-width:2.8px;}.cls-2,.cls-3,.cls-4,.cls-6{stroke-width:0.1px;}.cls-3{stroke:#231f13;}.cls-4{stroke:#242015;}.cls-5,.cls-6{fill:#231d10;}.cls-6{stroke-linecap:round;stroke-linejoin:round;}</style></defs><rect class="cls-1" x="2.29" y="2.08" width="35.42" height="35.42" rx="17.71"/><path class="cls-2" d="M29,13.7s5.51,6.32-.27,12.91c0,0-.73.58-1.27,0a1,1,0,0,1-.35-1.15,7.73,7.73,0,0,0,.12-10.79,1,1,0,0,1,.27-1.32A1.1,1.1,0,0,1,29,13.7Z"/><path class="cls-3" d="M26.31,16.23a5.51,5.51,0,0,1,0,7.68,1,1,0,0,1-1.23-.11,1.07,1.07,0,0,1-.26-1.17,3.84,3.84,0,0,0,.14-5,1.07,1.07,0,0,1,.12-1.38S25.83,15.66,26.31,16.23Z"/><path class="cls-4" d="M11.06,14.35h3.08s.63.14,1.49-.67L19,11.35s3.22-2,4.27,1.39l.05,14.53s-.33,3-3.53,1.78l-4.49-2.72S14.58,25.64,14,26H11.79A3.38,3.38,0,0,1,8.62,23v-6.1A2.94,2.94,0,0,1,11.06,14.35Z"/><path class="cls-5" d="M11.65,16.27h2.21a3.42,3.42,0,0,0,2.78-.84L20,13.05s1.62-1,1.32.66l0,13.16s.14,1-.92.24l-4.21-2.65a3,3,0,0,0-2.35-.57l-2.22,0s-1.08-.05-1.06-1.51V17.31A1,1,0,0,1,11.65,16.27Z"/><path class="cls-6" d="M20,2.92v8a2.4,2.4,0,0,1,3.29,1.82L23.34,16v4.51h2.47A4.4,4.4,0,0,0,25,17.61a1.09,1.09,0,0,1,.12-1.38s.71-.64,1.23,0a6.11,6.11,0,0,1,1.58,4.26h1.43a8.89,8.89,0,0,0-2.14-5.82,1,1,0,0,1,.27-1.32,1.16,1.16,0,0,1,1.5.35s2.79,3.6,2.37,6.79h5.55A16.24,16.24,0,0,0,29.16,5.25S26.32,2.58,20,2.92Z"/><path class="cls-6" d="M20,37.2v-8a2.4,2.4,0,0,0,3.29-1.82l.05-3.24V19.63h2.47A4.4,4.4,0,0,1,25,22.51a1.09,1.09,0,0,0,.12,1.38s.71.64,1.23,0a6.11,6.11,0,0,0,1.58-4.26h1.43a8.89,8.89,0,0,1-2.14,5.82,1,1,0,0,0,.27,1.32,1.16,1.16,0,0,0,1.5-.35s2.79-3.6,2.37-6.79h5.55a16.24,16.24,0,0,1-7.71,15.24S26.32,37.54,20,37.2Z"/><path class="cls-5" d="M20,37.92V29.2l-4.68-2.87A1.26,1.26,0,0,0,14,26H11.79A3.36,3.36,0,0,1,8.62,23v-6.1a3,3,0,0,1,2.44-2.57h3.08a2.47,2.47,0,0,0,1.49-.67L19,11.35a3.7,3.7,0,0,1,1-.43v-8S4.19,1.92,2.63,21C2.63,21-.48,36.62,20,37.92Z"/></svg>