<svg id="Layer_1" data-name="Layer 1" xmlns="http://www.w3.org/2000/svg" viewBox="0 0 82.21 73.43"><defs><style>.cls-1{fill:#fff;}</style></defs><g id="b"><g id="c"><path class="cls-1" d="M81,13.59h-4.5L75.57,13c1.15-4.25,1.69-8.69.54-12.15A1.23,1.23,0,0,0,74.69,0C68.06,1.48,62.54,6,59.08,9.53c-.27.27-.52.54-.77.81H47a7.65,7.65,0,0,0-5.45,2.26l-.48.48-.48-.48a7.67,7.67,0,0,0-5.45-2.26H10.94a1.22,1.22,0,0,0-.67.2l-4.56,3H1.22A1.22,1.22,0,0,0,0,14.8V70.58A1.22,1.22,0,0,0,1.22,71.8H37.46v.41a1.22,1.22,0,0,0,1.22,1.22h4.86a1.22,1.22,0,0,0,1.22-1.22V71.8H81a1.22,1.22,0,0,0,1.22-1.22V14.81A1.22,1.22,0,0,0,81,13.59Zm-6.14,1.82.06,0V62.79l-2.43-2.43V21.57c.8-1.81,1.64-3.92,2.37-6.15ZM74.1,2.68c1.63,8.05-5.54,21.56-6.51,23.35l-5.17,4.19a1.2,1.2,0,0,0-.42,1.2,1.21,1.21,0,0,0,.88.92l1.51.4L59,40l-6.94,2.7A119.61,119.61,0,0,1,69,9.51a1.22,1.22,0,0,0-2-1.45A121.55,121.55,0,0,0,50.14,40.71l-2.55-8.42,3.52-8.21,1.11,1.11a1.22,1.22,0,0,0,2.07-.67l1-6.56c1.06-1.61,8.52-12.4,18.78-15.3ZM12.16,12.78h23a5.27,5.27,0,0,1,3.73,1.54l1,1V62a7.71,7.71,0,0,0-5.5-2.31H12.16ZM7.3,15.46l2.43-1.62V60.36L7.3,62.79ZM37.46,69.37h-35V16H4.86v49.7a1.23,1.23,0,0,0,1.22,1.22H37.46ZM9,64.51l2.43-2.43H34.39a5.32,5.32,0,0,1,4.44,2.43ZM42.32,71H39.89V67h2.43Zm0-55.68,1-1A5.23,5.23,0,0,1,47,12.79h9.14a42.62,42.62,0,0,0-3,4.11,1.21,1.21,0,0,0-.17.46l-.71,4.45-.69-.69a1.19,1.19,0,0,0-1.09-.33,1.21,1.21,0,0,0-.89.72L48.1,25H46.38a1.22,1.22,0,0,0,0,2.44h.68l-1.88,4.39a1.25,1.25,0,0,0,0,.83l1.61,5.32h-.36a1.22,1.22,0,0,0,0,2.44h1.1l1.23,4H46.38a1.22,1.22,0,0,0,0,2.44h1.81c-.43,1.47-.8,2.82-1.12,4.05h-.68a1.22,1.22,0,0,0,0,2.44H65.85a1.22,1.22,0,0,0,0-2.44H49.59c.33-1.24.71-2.59,1.15-4.05H65.85a1.22,1.22,0,0,0,0-2.44H54.37l5.83-2.27a1.13,1.13,0,0,0,.53-.41l1-1.38h4.09a1.22,1.22,0,0,0,0-2.44H63.58l3.84-5.14a1.2,1.2,0,0,0,.17-1.13,1.22,1.22,0,0,0-.83-.78l-.94-.25,3.5-2.84a1.09,1.09,0,0,0,.29-.35c0-.08.21-.37.46-.84v33H47.84A7.68,7.68,0,0,0,42.34,62V15.31Zm1.06,49.2a5.32,5.32,0,0,1,4.44-2.43H70.76l2.43,2.43H43.38Zm36.4,4.86h-35V67H76.13a1.23,1.23,0,0,0,1.22-1.22V16h2.43V69.37Z"/><path class="cls-1" d="M19.7,20.89H32.51a1.22,1.22,0,0,0,0-2.44H19.7a1.22,1.22,0,0,0,0,2.44Z"/><path class="cls-1" d="M16.38,27.37H35.84a1.22,1.22,0,1,0,0-2.44H16.38a1.22,1.22,0,1,0,0,2.44Z"/><path class="cls-1" d="M16.38,33.86H35.84a1.22,1.22,0,0,0,0-2.44H16.38a1.22,1.22,0,1,0,0,2.44Z"/><path class="cls-1" d="M16.38,40.35H35.84a1.22,1.22,0,0,0,0-2.44H16.38a1.22,1.22,0,0,0,0,2.44Z"/><path class="cls-1" d="M16.38,46.83H35.84a1.22,1.22,0,0,0,0-2.44H16.38a1.22,1.22,0,1,0,0,2.44Z"/><path class="cls-1" d="M37.05,52.1a1.22,1.22,0,0,0-1.22-1.22H16.38a1.22,1.22,0,0,0,0,2.44H35.84a1.22,1.22,0,0,0,1.22-1.22Z"/></g></g></svg>