<?xml version="1.0" encoding="utf-8"?>
<!-- Generator: Adobe Illustrator 26.3.1, SVG Export Plug-In . SVG Version: 6.00 Build 0)  -->
<svg version="1.1" id="Layer_1" xmlns="http://www.w3.org/2000/svg" xmlns:xlink="http://www.w3.org/1999/xlink" x="0px" y="0px"
	 viewBox="0 0 82.2 73.4" style="enable-background:new 0 0 82.2 73.4;" xml:space="preserve">
<style type="text/css">
	.st0{fill:#F5DC9F;}
</style>
<g id="b">
	<g id="c">
		<path class="st0" d="M81,13.6h-4.5L75.6,13c1.2-4.2,1.7-8.7,0.5-12.1c-0.2-0.6-0.8-1-1.4-0.9c-6.6,1.5-12.2,6-15.6,9.5
			c-0.3,0.3-0.5,0.5-0.8,0.8H47c-2,0-4,0.8-5.5,2.3l-0.5,0.5l-0.5-0.5c-1.4-1.4-3.4-2.3-5.5-2.3H10.9c-0.2,0-0.5,0.1-0.7,0.2l-4.6,3
			H1.2c-0.7,0-1.2,0.5-1.2,1.2c0,0,0,0,0,0v55.8c0,0.7,0.5,1.2,1.2,1.2c0,0,0,0,0,0h36.2v0.4c0,0.7,0.5,1.2,1.2,1.2c0,0,0,0,0,0h4.9
			c0.7,0,1.2-0.5,1.2-1.2l0,0v-0.4H81c0.7,0,1.2-0.5,1.2-1.2l0,0V14.8C82.2,14.1,81.7,13.6,81,13.6L81,13.6z M74.9,15.4L74.9,15.4
			l0.1,47.4l-2.4-2.4V21.6C73.3,19.8,74.1,17.6,74.9,15.4L74.9,15.4z M74.1,2.7c1.6,8.1-5.5,21.6-6.5,23.4l-5.2,4.2
			c-0.4,0.3-0.5,0.8-0.4,1.2c0.1,0.4,0.4,0.8,0.9,0.9l1.5,0.4L59,40l-6.9,2.7C55.9,30.8,61.7,19.6,69,9.5c0.4-0.6,0.3-1.3-0.3-1.7
			S67.4,7.5,67,8.1l0,0c-7.2,10-12.9,21-16.9,32.6l-2.5-8.4l3.5-8.2l1.1,1.1c0.5,0.5,1.2,0.5,1.7,0c0.2-0.2,0.3-0.4,0.3-0.7l1-6.6
			C56.4,16.4,63.8,5.6,74.1,2.7L74.1,2.7z M12.2,12.8h23c1.4,0,2.7,0.6,3.7,1.5l1,1V62c-1.4-1.5-3.4-2.3-5.5-2.3H12.2V12.8z
			 M7.3,15.5l2.4-1.6v46.5l-2.4,2.4V15.5z M37.5,69.4h-35V16h2.4v49.7c0,0.7,0.5,1.2,1.2,1.2h31.4V69.4z M9,64.5l2.4-2.4h23
			c1.8,0,3.5,0.9,4.4,2.4H9z M42.3,71h-2.4v-4h2.4V71z M42.3,15.3l1-1c1-1,2.3-1.5,3.7-1.5h9.1c-1.1,1.3-2.1,2.7-3,4.1
			C53.1,17,53,17.2,53,17.4l-0.7,4.4l-0.7-0.7c-0.3-0.3-0.7-0.4-1.1-0.3c-0.4,0.1-0.7,0.3-0.9,0.7L48.1,25h-1.7
			c-0.7,0-1.2,0.5-1.2,1.2c0,0.7,0.5,1.2,1.2,1.2h0.7l-1.9,4.4c-0.1,0.3-0.1,0.6,0,0.8l1.6,5.3h-0.4c-0.7,0-1.2,0.5-1.2,1.2
			c0,0.7,0.5,1.2,1.2,1.2h1.1l1.2,4h-2.4c-0.7,0-1.2,0.5-1.2,1.2c0,0.7,0.5,1.2,1.2,1.2h1.8c-0.4,1.5-0.8,2.8-1.1,4h-0.7
			c-0.7,0-1.2,0.5-1.2,1.2c0,0.7,0.5,1.2,1.2,1.2h19.5c0.7,0,1.2-0.5,1.2-1.2c0-0.7-0.5-1.2-1.2-1.2H49.6c0.3-1.2,0.7-2.6,1.2-4
			h15.1c0.7,0,1.2-0.5,1.2-1.2c0-0.7-0.5-1.2-1.2-1.2H54.4l5.8-2.3c0.2-0.1,0.4-0.2,0.5-0.4l1-1.4h4.1c0.7,0,1.2-0.5,1.2-1.2
			c0-0.7-0.5-1.2-1.2-1.2h-2.2l3.8-5.1c0.2-0.3,0.3-0.7,0.2-1.1c-0.1-0.4-0.4-0.7-0.8-0.8l-0.9-0.2l3.5-2.8c0.1-0.1,0.2-0.2,0.3-0.4
			c0-0.1,0.2-0.4,0.5-0.8v33H47.8c-2.1,0-4.1,0.9-5.5,2.4L42.3,15.3L42.3,15.3z M43.4,64.5c1-1.5,2.6-2.4,4.4-2.4h22.9l2.4,2.4H43.4
			z M79.8,69.4h-35V67h31.3c0.7,0,1.2-0.5,1.2-1.2V16h2.4V69.4L79.8,69.4z"/>
		<path class="st0" d="M19.7,20.9h12.8c0.7,0,1.2-0.5,1.2-1.2c0-0.7-0.5-1.2-1.2-1.2H19.7c-0.7,0-1.2,0.5-1.2,1.2
			C18.5,20.3,19,20.9,19.7,20.9z"/>
		<path class="st0" d="M16.4,27.4h19.5c0.7,0,1.2-0.5,1.2-1.2c0-0.7-0.5-1.2-1.2-1.2H16.4c-0.7,0-1.2,0.5-1.2,1.2
			C15.2,26.8,15.7,27.4,16.4,27.4z"/>
		<path class="st0" d="M16.4,33.9h19.5c0.7,0,1.2-0.5,1.2-1.2c0-0.7-0.5-1.2-1.2-1.2H16.4c-0.7,0-1.2,0.5-1.2,1.2
			C15.2,33.3,15.7,33.9,16.4,33.9z"/>
		<path class="st0" d="M16.4,40.3h19.5c0.7,0,1.2-0.5,1.2-1.2c0-0.7-0.5-1.2-1.2-1.2H16.4c-0.7,0-1.2,0.5-1.2,1.2
			C15.2,39.8,15.7,40.3,16.4,40.3z"/>
		<path class="st0" d="M16.4,46.8h19.5c0.7,0,1.2-0.5,1.2-1.2c0-0.7-0.5-1.2-1.2-1.2H16.4c-0.7,0-1.2,0.5-1.2,1.2
			S15.7,46.8,16.4,46.8C16.4,46.8,16.4,46.8,16.4,46.8z"/>
		<path class="st0" d="M37,52.1c0-0.7-0.5-1.2-1.2-1.2c0,0,0,0,0,0H16.4c-0.7,0-1.2,0.5-1.2,1.2c0,0.7,0.5,1.2,1.2,1.2h19.5
			C36.5,53.3,37.1,52.8,37,52.1C37.1,52.1,37.1,52.1,37,52.1L37,52.1z"/>
	</g>
</g>
</svg>
